<svg width="145.212357" height="23.921875" viewBox="0 0 145.212 23.9219" fill="none" xmlns="http://www.w3.org/2000/svg" xmlns:xlink="http://www.w3.org/1999/xlink">
	<desc>
			Created with Pixso.
	</desc>
	<defs/>
	<path id="SHOP.CO" d="M18.09 7.01L13.37 7.01C13.19 5.18 11.75 4.11 9.39 4.11C6.98 4.11 5.65 5.21 5.65 6.71C5.62 8.39 7.32 9.14 9.34 9.6L11.42 10.1C15.47 11.01 18.39 13.07 18.4 16.94C18.39 21.21 15.05 23.92 9.37 23.92C3.72 23.92 0.12 21.32 0 16.28L4.75 16.28C4.92 18.61 6.75 19.79 9.32 19.79C11.82 19.79 13.42 18.64 13.44 16.93C13.42 15.36 12.02 14.64 9.48 14.02L6.95 13.39C3.02 12.44 0.6 10.47 0.6 7.04C0.59 2.82 4.32 0 9.42 0C14.6 0 18.02 2.86 18.09 7.01ZM56.06 0C62.23 0 66.96 4.34 66.96 11.96C66.96 19.57 62.23 23.91 56.06 23.91C49.86 23.91 45.17 19.53 45.17 11.96C45.17 4.34 49.86 0 56.06 0ZM110.19 0C115.58 0 119.64 3.09 120.29 8.46L115.31 8.46C114.94 5.91 112.99 4.35 110.3 4.35C106.7 4.35 104.33 7.11 104.33 11.96C104.33 16.93 106.73 19.56 110.26 19.56C112.89 19.56 114.85 18.12 115.31 15.64L120.29 15.66C119.76 19.94 116.16 23.91 110.19 23.91C103.96 23.91 99.35 19.54 99.35 11.96C99.35 4.34 104.04 0 110.19 0ZM134.31 0C140.48 0 145.21 4.34 145.21 11.96C145.21 19.57 140.48 23.91 134.31 23.91C128.11 23.91 123.42 19.53 123.42 11.96C123.42 4.34 128.11 0 134.31 0ZM26.62 23.59L21.7 23.59L21.7 0.32L26.62 0.32L26.62 9.92L36.61 9.92L36.61 0.32L41.52 0.32L41.52 23.59L36.61 23.59L36.61 13.97L26.62 13.97L26.62 23.59ZM75.52 23.59L70.6 23.59L70.6 0.32L79.78 0.32C85.07 0.32 88.12 3.58 88.12 8.21C88.12 12.85 85 16.04 79.65 16.04L75.52 16.04L75.52 23.59ZM75.52 4.34L75.52 12.1L78.86 12.1C81.68 12.1 83.05 10.51 83.05 8.21C83.05 5.89 81.68 4.34 78.83 4.34L75.52 4.34ZM56.06 19.56C59.63 19.56 61.97 16.89 61.97 11.96C61.97 7.02 59.63 4.35 56.06 4.35C52.48 4.35 50.15 7.02 50.15 11.96C50.15 16.89 52.48 19.56 56.06 19.56ZM134.31 19.56C137.88 19.56 140.22 16.89 140.22 11.96C140.22 7.02 137.88 4.35 134.31 4.35C130.73 4.35 128.4 7.02 128.4 11.96C128.4 16.89 130.73 19.56 134.31 19.56ZM95.7 21.16C95.69 22.67 94.43 23.89 92.97 23.89C91.47 23.89 90.23 22.67 90.24 21.16C90.23 19.67 91.47 18.46 92.97 18.46C94.43 18.46 95.69 19.67 95.7 21.16Z" fill="#000000" fill-opacity="1.000000" fill-rule="evenodd"/>
</svg>
